# MagicaVoxel @ Ephtracy

# group
o 

# material
mtllib block_rock.mtl
usemtl palette

# normals
vn -1 0 0
vn 1 0 0
vn 0 0 1
vn 0 0 -1
vn 0 -1 0
vn 0 1 0

# texcoords
vt 0.0332031 0.5
vt 0.111328 0.5

# verts
v -0.5 0 2.4
v -0.5 0 1.6
v -0.5 0.9 2.4
v -0.5 0.9 1.6
v -0.5 1.2 2.2
v -0.5 1.2 2.1
v -0.5 1.3 2.2
v -0.5 1.3 2.1
v -0.4 0 2.5
v -0.4 0 2.4
v -0.4 0 1.6
v -0.4 0 1.5
v -0.4 0.9 2.5
v -0.4 0.9 2.4
v -0.4 0.9 1.6
v -0.4 0.9 1.5
v -0.4 1 2.4
v -0.4 1 2.3
v -0.4 1 2.1
v -0.4 1 1.6
v -0.4 1.2 2.2
v -0.4 1.2 2.1
v -0.4 1.2 1.7
v -0.4 1.2 1.6
v -0.4 1.3 2.2
v -0.4 1.3 2.1
v -0.4 1.3 1.7
v -0.4 1.3 1.6
v -0.4 1.4 2.3
v -0.4 1.4 2.1
v -0.3 1 2.4
v -0.3 1 2.3
v -0.3 1 2.1
v -0.3 1 2
v -0.3 1 1.9
v -0.3 1 1.6
v -0.3 1.1 2.1
v -0.3 1.1 2
v -0.3 1.1 1.9
v -0.3 1.1 1.8
v -0.3 1.2 1.7
v -0.3 1.2 1.6
v -0.3 1.3 1.7
v -0.3 1.3 1.6
v -0.3 1.4 2.4
v -0.3 1.4 2.3
v -0.3 1.4 2.2
v -0.3 1.5 2.3
v -0.3 1.5 2.2
v -0.3 1.5 1.8
v -0.3 1.5 1.6
v -0.2 1.1 2.1
v -0.2 1.1 2
v -0.2 1.2 2.1
v -0.2 1.2 2
v -0.2 1.4 2.2
v -0.2 1.4 2.1
v -0.2 1.5 2.2
v -0.2 1.5 2.1
v -0.2 1.5 2
v -0.2 1.5 1.8
v -0.2 1.5 1.7
v -0.2 1.8 2
v -0.2 1.8 1.7
v -0.1 1.2 2.2
v -0.1 1.2 2.1
v -0.1 1.3 2.4
v -0.1 1.3 2.3
v -0.1 1.3 2.2
v -0.1 1.3 2.1
v -0.1 1.3 1.9
v -0.1 1.4 2.4
v -0.1 1.4 2.3
v -0.1 1.5 2.2
v -0.1 1.5 2.1
v -0.1 1.5 2
v -0.1 1.5 1.9
v -0.1 1.6 2.2
v -0.1 1.6 2
v 0 1 2.4
v 0 1 2.3
v 0 1 1.9
v 0 1 1.7
v 0 1.1 2.4
v 0 1.1 2.3
v 0 1.3 1.9
v 0 1.3 1.8
v 0 1.3 1.7
v 0 1.4 1.9
v 0 1.4 1.8
v 0 1.5 2.3
v 0 1.5 2.2
v 0 1.6 2.3
v 0 1.6 2.2
v 0 1.6 2
v 0 1.7 2.2
v 0 1.7 2
v 0.2 1 2
v 0.2 1 1.9
v 0.2 1.1 2
v 0.2 1.1 1.9
v 0.3 1 1.7
v 0.3 1 1.6
v 0.3 1.1 1.7
v 0.3 1.1 1.6
v -0.2 1 2.4
v -0.2 1 2.3
v -0.2 1 1.9
v -0.2 1 1.8
v -0.2 1.1 1.9
v -0.2 1.1 1.8
v -0.2 1.2 2.3
v -0.2 1.2 2.1
v -0.2 1.3 2.3
v -0.2 1.3 2.1
v -0.2 1.4 2.4
v -0.2 1.4 2.3
v -0.1 1 1.8
v -0.1 1 1.6
v -0.1 1.5 1.8
v -0.1 1.5 1.7
v -0.1 1.5 1.6
v 0 1.5 1.9
v 0 1.5 1.7
v 0 1.7 2
v 0 1.7 1.9
v 0 1.8 2
v 0 1.8 1.7
v 0.1 1 2.4
v 0.1 1 2.3
v 0.1 1.1 2.4
v 0.1 1.1 2.3
v 0.1 1.5 2.3
v 0.1 1.5 2.2
v 0.1 1.6 2.3
v 0.1 1.6 2.2
v 0.1 1.6 1.9
v 0.1 1.7 2.2
v 0.1 1.7 1.9
v 0.2 1 1.9
v 0.2 1 1.7
v 0.2 1.1 1.9
v 0.2 1.2 2.2
v 0.2 1.2 2.1
v 0.2 1.3 2.4
v 0.2 1.3 2.3
v 0.2 1.3 2.2
v 0.2 1.3 2.1
v 0.2 1.3 1.9
v 0.2 1.3 1.8
v 0.2 1.3 1.7
v 0.2 1.4 2.4
v 0.2 1.4 2.3
v 0.2 1.4 2.2
v 0.2 1.4 1.9
v 0.2 1.4 1.8
v 0.2 1.5 2.3
v 0.2 1.5 2.2
v 0.2 1.5 1.9
v 0.2 1.6 2.2
v 0.2 1.6 1.9
v 0.3 1 2.3
v 0.3 1 1.9
v 0.3 1.1 2
v 0.3 1.1 1.9
v 0.3 1.2 2.3
v 0.3 1.2 2
v 0.3 1.3 2.3
v 0.3 1.3 1.9
v 0.3 1.4 2.3
v 0.3 1.4 2.2
v 0.3 1.5 2.2
v 0.3 1.5 1.9
v 0.4 0 2.5
v 0.4 0 2.4
v 0.4 0 1.6
v 0.4 0 1.5
v 0.4 0.9 2.5
v 0.4 0.9 2.4
v 0.4 0.9 1.6
v 0.4 0.9 1.5
v 0.4 1 2.4
v 0.4 1 1.7
v 0.4 1 1.6
v 0.4 1.1 1.7
v 0.4 1.1 1.6
v 0.5 0 2.4
v 0.5 0 1.6
v 0.5 0.9 2.4
v 0.5 0.9 1.6
v -0.4 0 2.5
v -0.4 0.9 2.5
v 0.4 0 2.5
v 0.4 0.9 2.5
v -0.5 0 2.4
v -0.5 0.9 2.4
v -0.4 0 2.4
v -0.4 0.9 2.4
v -0.4 1 2.4
v -0.3 1 2.4
v -0.3 1.4 2.4
v -0.2 1 2.4
v -0.2 1.4 2.4
v -0.1 1.3 2.4
v -0.1 1.4 2.4
v 0 1 2.4
v 0 1.1 2.4
v 0.1 1 2.4
v 0.1 1.1 2.4
v 0.2 1.3 2.4
v 0.2 1.4 2.4
v 0.4 0 2.4
v 0.4 0.9 2.4
v 0.4 1 2.4
v 0.5 0 2.4
v 0.5 0.9 2.4
v -0.4 1 2.3
v -0.4 1.4 2.3
v -0.3 1 2.3
v -0.3 1.4 2.3
v -0.3 1.5 2.3
v -0.2 1 2.3
v -0.2 1.2 2.3
v -0.2 1.3 2.3
v -0.2 1.4 2.3
v -0.1 1.3 2.3
v -0.1 1.4 2.3
v 0 1 2.3
v 0 1.1 2.3
v 0 1.5 2.3
v 0 1.6 2.3
v 0.1 1 2.3
v 0.1 1.1 2.3
v 0.1 1.5 2.3
v 0.1 1.6 2.3
v 0.2 1.3 2.3
v 0.2 1.4 2.3
v 0.2 1.5 2.3
v 0.3 1 2.3
v 0.3 1.2 2.3
v 0.3 1.3 2.3
v 0.3 1.4 2.3
v -0.5 1.2 2.2
v -0.5 1.3 2.2
v -0.4 1.2 2.2
v -0.4 1.3 2.2
v -0.1 1.2 2.2
v -0.1 1.3 2.2
v -0.1 1.5 2.2
v -0.1 1.6 2.2
v 0 1.5 2.2
v 0 1.6 2.2
v 0 1.7 2.2
v 0.1 1.5 2.2
v 0.1 1.6 2.2
v 0.1 1.7 2.2
v 0.2 1.2 2.2
v 0.2 1.3 2.2
v 0.2 1.4 2.2
v 0.2 1.5 2.2
v 0.2 1.6 2.2
v 0.3 1.4 2.2
v 0.3 1.5 2.2
v -0.2 1.5 2
v -0.2 1.8 2
v -0.1 1.5 2
v -0.1 1.6 2
v 0 1.6 2
v 0 1.7 2
v 0 1.8 2
v -0.3 1 1.9
v -0.3 1.1 1.9
v -0.2 1 1.9
v -0.2 1.1 1.9
v 0 1 1.9
v 0 1.3 1.9
v 0.2 1 1.9
v 0.2 1.1 1.9
v 0.2 1.3 1.9
v -0.3 1.1 1.8
v -0.3 1.5 1.8
v -0.2 1 1.8
v -0.2 1.1 1.8
v -0.2 1.5 1.8
v -0.1 1 1.8
v -0.1 1.5 1.8
v -0.4 1.2 1.7
v -0.4 1.3 1.7
v -0.3 1.2 1.7
v -0.3 1.3 1.7
v 0.3 1 1.7
v 0.3 1.1 1.7
v 0.4 1 1.7
v 0.4 1.1 1.7
v -0.3 1.4 2.2
v -0.3 1.5 2.2
v -0.2 1.4 2.2
v -0.2 1.5 2.2
v -0.5 1.2 2.1
v -0.5 1.3 2.1
v -0.4 1 2.1
v -0.4 1.2 2.1
v -0.4 1.3 2.1
v -0.4 1.4 2.1
v -0.3 1 2.1
v -0.3 1.1 2.1
v -0.2 1.1 2.1
v -0.2 1.2 2.1
v -0.2 1.3 2.1
v -0.2 1.4 2.1
v -0.2 1.5 2.1
v -0.1 1.2 2.1
v -0.1 1.3 2.1
v -0.1 1.5 2.1
v 0.2 1.2 2.1
v 0.2 1.3 2.1
v -0.3 1 2
v -0.3 1.1 2
v -0.2 1.1 2
v -0.2 1.2 2
v 0.2 1 2
v 0.2 1.1 2
v 0.3 1.1 2
v 0.3 1.2 2
v -0.1 1.3 1.9
v -0.1 1.5 1.9
v 0 1.3 1.9
v 0 1.4 1.9
v 0 1.5 1.9
v 0 1.7 1.9
v 0.1 1.6 1.9
v 0.1 1.7 1.9
v 0.2 1 1.9
v 0.2 1.1 1.9
v 0.2 1.3 1.9
v 0.2 1.4 1.9
v 0.2 1.5 1.9
v 0.2 1.6 1.9
v 0.3 1 1.9
v 0.3 1.1 1.9
v 0.3 1.3 1.9
v 0.3 1.5 1.9
v 0 1.3 1.8
v 0 1.4 1.8
v 0.2 1.3 1.8
v 0.2 1.4 1.8
v -0.2 1.5 1.7
v -0.2 1.8 1.7
v -0.1 1.5 1.7
v 0 1 1.7
v 0 1.3 1.7
v 0 1.5 1.7
v 0 1.8 1.7
v 0.2 1 1.7
v 0.2 1.3 1.7
v -0.5 0 1.6
v -0.5 0.9 1.6
v -0.4 0 1.6
v -0.4 0.9 1.6
v -0.4 1 1.6
v -0.4 1.2 1.6
v -0.4 1.3 1.6
v -0.3 1 1.6
v -0.3 1.2 1.6
v -0.3 1.3 1.6
v -0.3 1.5 1.6
v -0.1 1 1.6
v -0.1 1.5 1.6
v 0.3 1 1.6
v 0.3 1.1 1.6
v 0.4 0 1.6
v 0.4 0.9 1.6
v 0.4 1 1.6
v 0.4 1.1 1.6
v 0.5 0 1.6
v 0.5 0.9 1.6
v -0.4 0 1.5
v -0.4 0.9 1.5
v 0.4 0 1.5
v 0.4 0.9 1.5
v -0.4 0 2.5
v 0.4 0 2.5
v -0.5 0 2.4
v -0.4 0 2.4
v 0.4 0 2.4
v 0.5 0 2.4
v -0.5 0 1.6
v -0.4 0 1.6
v 0.4 0 1.6
v 0.5 0 1.6
v -0.4 0 1.5
v 0.4 0 1.5
v -0.5 1.2 2.2
v -0.4 1.2 2.2
v -0.5 1.2 2.1
v -0.4 1.2 2.1
v -0.4 1.2 1.7
v -0.3 1.2 1.7
v -0.4 1.2 1.6
v -0.3 1.2 1.6
v -0.1 1.3 2.4
v 0.2 1.3 2.4
v -0.2 1.3 2.3
v -0.1 1.3 2.3
v 0.2 1.3 2.3
v 0.3 1.3 2.3
v -0.1 1.3 2.2
v 0.2 1.3 2.2
v -0.2 1.3 2.1
v -0.1 1.3 2.1
v 0.2 1.3 2.1
v -0.1 1.3 1.9
v 0 1.3 1.9
v 0.2 1.3 1.9
v 0.3 1.3 1.9
v -0.2 1.5 2
v -0.1 1.5 2
v -0.1 1.5 1.9
v 0 1.5 1.9
v -0.2 1.5 1.8
v -0.1 1.5 1.8
v -0.1 1.5 1.7
v 0 1.5 1.7
v -0.4 0.9 2.5
v 0.4 0.9 2.5
v -0.5 0.9 2.4
v -0.4 0.9 2.4
v 0.4 0.9 2.4
v 0.5 0.9 2.4
v -0.5 0.9 1.6
v -0.4 0.9 1.6
v 0.4 0.9 1.6
v 0.5 0.9 1.6
v -0.4 0.9 1.5
v 0.4 0.9 1.5
v -0.4 1 2.4
v -0.3 1 2.4
v -0.2 1 2.4
v 0 1 2.4
v 0.1 1 2.4
v 0.4 1 2.4
v -0.4 1 2.3
v -0.3 1 2.3
v -0.2 1 2.3
v 0 1 2.3
v 0.1 1 2.3
v 0.3 1 2.3
v -0.4 1 2.1
v -0.3 1 2.1
v -0.3 1 2
v 0.2 1 2
v -0.3 1 1.9
v -0.2 1 1.9
v 0 1 1.9
v 0.2 1 1.9
v 0.3 1 1.9
v -0.2 1 1.8
v -0.1 1 1.8
v 0 1 1.7
v 0.2 1 1.7
v 0.3 1 1.7
v 0.4 1 1.7
v -0.4 1 1.6
v -0.3 1 1.6
v -0.1 1 1.6
v 0.3 1 1.6
v 0 1.1 2.4
v 0.1 1.1 2.4
v 0 1.1 2.3
v 0.1 1.1 2.3
v -0.3 1.1 2.1
v -0.2 1.1 2.1
v -0.3 1.1 2
v -0.2 1.1 2
v 0.2 1.1 2
v 0.3 1.1 2
v -0.3 1.1 1.9
v -0.2 1.1 1.9
v 0.2 1.1 1.9
v 0.3 1.1 1.9
v -0.3 1.1 1.8
v -0.2 1.1 1.8
v 0.3 1.1 1.7
v 0.4 1.1 1.7
v 0.3 1.1 1.6
v 0.4 1.1 1.6
v -0.2 1.2 2.3
v 0.3 1.2 2.3
v -0.1 1.2 2.2
v 0.2 1.2 2.2
v -0.2 1.2 2.1
v -0.1 1.2 2.1
v 0.2 1.2 2.1
v -0.2 1.2 2
v 0.3 1.2 2
v -0.5 1.3 2.2
v -0.4 1.3 2.2
v -0.5 1.3 2.1
v -0.4 1.3 2.1
v 0 1.3 1.8
v 0.2 1.3 1.8
v -0.4 1.3 1.7
v -0.3 1.3 1.7
v 0 1.3 1.7
v 0.2 1.3 1.7
v -0.4 1.3 1.6
v -0.3 1.3 1.6
v -0.3 1.4 2.4
v -0.2 1.4 2.4
v -0.1 1.4 2.4
v 0.2 1.4 2.4
v -0.4 1.4 2.3
v -0.3 1.4 2.3
v -0.2 1.4 2.3
v -0.1 1.4 2.3
v 0.2 1.4 2.3
v 0.3 1.4 2.3
v -0.3 1.4 2.2
v -0.2 1.4 2.2
v 0.2 1.4 2.2
v 0.3 1.4 2.2
v -0.4 1.4 2.1
v -0.2 1.4 2.1
v 0 1.4 1.9
v 0.2 1.4 1.9
v 0 1.4 1.8
v 0.2 1.4 1.8
v -0.3 1.5 2.3
v 0 1.5 2.3
v 0.1 1.5 2.3
v 0.2 1.5 2.3
v -0.3 1.5 2.2
v -0.2 1.5 2.2
v -0.1 1.5 2.2
v 0 1.5 2.2
v 0.1 1.5 2.2
v 0.2 1.5 2.2
v 0.3 1.5 2.2
v -0.2 1.5 2.1
v -0.1 1.5 2.1
v 0.2 1.5 1.9
v 0.3 1.5 1.9
v -0.3 1.5 1.8
v -0.2 1.5 1.8
v -0.2 1.5 1.7
v -0.1 1.5 1.7
v -0.3 1.5 1.6
v -0.1 1.5 1.6
v 0 1.6 2.3
v 0.1 1.6 2.3
v -0.1 1.6 2.2
v 0 1.6 2.2
v 0.1 1.6 2.2
v 0.2 1.6 2.2
v -0.1 1.6 2
v 0 1.6 2
v 0.1 1.6 1.9
v 0.2 1.6 1.9
v 0 1.7 2.2
v 0.1 1.7 2.2
v 0 1.7 2
v 0 1.7 1.9
v 0.1 1.7 1.9
v -0.2 1.8 2
v 0 1.8 2
v -0.2 1.8 1.7
v 0 1.8 1.7

# faces
f 3/1/1 2/1/1 1/1/1
f 4/1/1 2/1/1 3/1/1
f 7/2/1 6/2/1 5/2/1
f 8/2/1 6/2/1 7/2/1
f 13/1/1 10/1/1 9/1/1
f 14/1/1 10/1/1 13/1/1
f 15/1/1 12/1/1 11/1/1
f 16/1/1 12/1/1 15/1/1
f 17/1/1 15/1/1 14/1/1
f 18/1/1 15/1/1 17/1/1
f 19/1/1 15/1/1 18/1/1
f 20/1/1 15/1/1 19/1/1
f 21/2/1 19/2/1 18/2/1
f 22/2/1 19/2/1 21/2/1
f 25/2/1 21/2/1 18/2/1
f 27/2/1 24/2/1 23/2/1
f 28/2/1 24/2/1 27/2/1
f 29/2/1 26/2/1 25/2/1
f 29/2/1 25/2/1 18/2/1
f 30/2/1 26/2/1 29/2/1
f 37/2/1 34/2/1 33/2/1
f 38/2/1 34/2/1 37/2/1
f 39/2/1 36/2/1 35/2/1
f 40/2/1 36/2/1 39/2/1
f 41/2/1 36/2/1 40/2/1
f 42/2/1 36/2/1 41/2/1
f 43/2/1 41/2/1 40/2/1
f 45/2/1 32/2/1 31/2/1
f 46/2/1 32/2/1 45/2/1
f 48/2/1 47/2/1 46/2/1
f 49/2/1 47/2/1 48/2/1
f 50/2/1 44/2/1 43/2/1
f 50/2/1 43/2/1 40/2/1
f 51/2/1 44/2/1 50/2/1
f 54/2/1 53/2/1 52/2/1
f 55/2/1 53/2/1 54/2/1
f 58/2/1 57/2/1 56/2/1
f 59/2/1 57/2/1 58/2/1
f 63/2/1 62/2/1 61/2/1
f 63/2/1 61/2/1 60/2/1
f 64/2/1 62/2/1 63/2/1
f 69/2/1 66/2/1 65/2/1
f 70/2/1 66/2/1 69/2/1
f 72/2/1 68/2/1 67/2/1
f 73/2/1 68/2/1 72/2/1
f 75/2/1 71/2/1 70/2/1
f 76/2/1 71/2/1 75/2/1
f 77/2/1 71/2/1 76/2/1
f 78/2/1 75/2/1 74/2/1
f 78/2/1 76/2/1 75/2/1
f 79/2/1 76/2/1 78/2/1
f 84/2/1 81/2/1 80/2/1
f 85/2/1 81/2/1 84/2/1
f 86/2/1 83/2/1 82/2/1
f 87/2/1 83/2/1 86/2/1
f 88/2/1 83/2/1 87/2/1
f 89/2/1 87/2/1 86/2/1
f 90/2/1 87/2/1 89/2/1
f 93/2/1 92/2/1 91/2/1
f 94/2/1 92/2/1 93/2/1
f 96/2/1 95/2/1 94/2/1
f 97/2/1 95/2/1 96/2/1
f 100/2/1 99/2/1 98/2/1
f 101/2/1 99/2/1 100/2/1
f 104/2/1 103/2/1 102/2/1
f 105/2/1 103/2/1 104/2/1
f 108/2/2 109/2/2 110/2/2
f 110/2/2 109/2/2 111/2/2
f 106/2/2 107/2/2 112/2/2
f 106/2/2 112/2/2 114/2/2
f 112/2/2 113/2/2 114/2/2
f 114/2/2 113/2/2 115/2/2
f 106/2/2 114/2/2 116/2/2
f 116/2/2 114/2/2 117/2/2
f 118/2/2 119/2/2 120/2/2
f 120/2/2 119/2/2 121/2/2
f 121/2/2 119/2/2 122/2/2
f 123/2/2 124/2/2 126/2/2
f 125/2/2 126/2/2 127/2/2
f 126/2/2 124/2/2 128/2/2
f 127/2/2 126/2/2 128/2/2
f 129/2/2 130/2/2 131/2/2
f 131/2/2 130/2/2 132/2/2
f 133/2/2 134/2/2 135/2/2
f 135/2/2 134/2/2 136/2/2
f 136/2/2 137/2/2 138/2/2
f 138/2/2 137/2/2 139/2/2
f 140/2/2 141/2/2 142/2/2
f 143/2/2 144/2/2 147/2/2
f 147/2/2 144/2/2 148/2/2
f 142/2/2 141/2/2 149/2/2
f 149/2/2 141/2/2 150/2/2
f 150/2/2 141/2/2 151/2/2
f 145/2/2 146/2/2 152/2/2
f 152/2/2 146/2/2 153/2/2
f 149/2/2 150/2/2 155/2/2
f 155/2/2 150/2/2 156/2/2
f 153/2/2 154/2/2 157/2/2
f 157/2/2 154/2/2 158/2/2
f 158/2/2 159/2/2 160/2/2
f 160/2/2 159/2/2 161/2/2
f 162/2/2 163/2/2 164/2/2
f 164/2/2 163/2/2 165/2/2
f 162/2/2 164/2/2 166/2/2
f 166/2/2 164/2/2 167/2/2
f 168/2/2 169/2/2 170/2/2
f 170/2/2 169/2/2 171/2/2
f 171/2/2 169/2/2 172/2/2
f 172/2/2 169/2/2 173/2/2
f 174/1/2 175/1/2 178/1/2
f 178/1/2 175/1/2 179/1/2
f 176/1/2 177/1/2 180/1/2
f 180/1/2 177/1/2 181/1/2
f 179/1/2 180/1/2 182/1/2
f 182/1/2 180/1/2 183/1/2
f 183/1/2 180/1/2 184/1/2
f 183/2/2 184/2/2 185/2/2
f 185/2/2 184/2/2 186/2/2
f 187/1/2 188/1/2 189/1/2
f 189/1/2 188/1/2 190/1/2
f 193/1/3 192/1/3 191/1/3
f 194/1/3 192/1/3 193/1/3
f 197/1/3 196/1/3 195/1/3
f 198/1/3 196/1/3 197/1/3
f 200/1/3 199/1/3 198/1/3
f 202/1/3 200/1/3 198/1/3
f 202/2/3 201/2/3 200/2/3
f 203/2/3 201/2/3 202/2/3
f 206/1/3 202/1/3 198/1/3
f 208/1/3 206/1/3 198/1/3
f 208/2/3 207/2/3 206/2/3
f 209/2/3 207/2/3 208/2/3
f 210/2/3 205/2/3 204/2/3
f 211/2/3 205/2/3 210/2/3
f 213/1/3 208/1/3 198/1/3
f 214/1/3 208/1/3 213/1/3
f 215/1/3 213/1/3 212/1/3
f 216/1/3 213/1/3 215/1/3
f 219/2/3 218/2/3 217/2/3
f 220/2/3 218/2/3 219/2/3
f 225/2/3 221/2/3 220/2/3
f 226/2/3 225/2/3 224/2/3
f 227/2/3 221/2/3 225/2/3
f 227/2/3 225/2/3 226/2/3
f 228/2/3 223/2/3 222/2/3
f 229/2/3 223/2/3 228/2/3
f 230/2/3 221/2/3 227/2/3
f 233/2/3 223/2/3 229/2/3
f 234/2/3 230/2/3 227/2/3
f 234/2/3 231/2/3 230/2/3
f 235/2/3 231/2/3 234/2/3
f 237/2/3 234/2/3 227/2/3
f 238/2/3 234/2/3 237/2/3
f 239/2/3 233/2/3 232/2/3
f 240/2/3 223/2/3 233/2/3
f 240/2/3 233/2/3 239/2/3
f 241/2/3 237/2/3 236/2/3
f 242/2/3 237/2/3 241/2/3
f 245/2/3 244/2/3 243/2/3
f 246/2/3 244/2/3 245/2/3
f 251/2/3 250/2/3 249/2/3
f 252/2/3 250/2/3 251/2/3
f 255/2/3 253/2/3 252/2/3
f 256/2/3 253/2/3 255/2/3
f 257/2/3 248/2/3 247/2/3
f 258/2/3 248/2/3 257/2/3
f 260/2/3 255/2/3 254/2/3
f 261/2/3 255/2/3 260/2/3
f 262/2/3 260/2/3 259/2/3
f 263/2/3 260/2/3 262/2/3
f 266/2/3 265/2/3 264/2/3
f 267/2/3 265/2/3 266/2/3
f 268/2/3 265/2/3 267/2/3
f 269/2/3 265/2/3 268/2/3
f 270/2/3 265/2/3 269/2/3
f 273/2/3 272/2/3 271/2/3
f 274/2/3 272/2/3 273/2/3
f 277/2/3 276/2/3 275/2/3
f 278/2/3 276/2/3 277/2/3
f 279/2/3 276/2/3 278/2/3
f 283/2/3 281/2/3 280/2/3
f 284/2/3 281/2/3 283/2/3
f 285/2/3 283/2/3 282/2/3
f 285/2/3 284/2/3 283/2/3
f 286/2/3 284/2/3 285/2/3
f 289/2/3 288/2/3 287/2/3
f 290/2/3 288/2/3 289/2/3
f 293/2/3 292/2/3 291/2/3
f 294/2/3 292/2/3 293/2/3
f 295/2/4 296/2/4 297/2/4
f 297/2/4 296/2/4 298/2/4
f 299/2/4 300/2/4 302/2/4
f 302/2/4 300/2/4 303/2/4
f 301/2/4 302/2/4 305/2/4
f 303/2/4 304/2/4 305/2/4
f 302/2/4 303/2/4 305/2/4
f 305/2/4 304/2/4 306/2/4
f 306/2/4 304/2/4 307/2/4
f 307/2/4 304/2/4 308/2/4
f 308/2/4 304/2/4 309/2/4
f 309/2/4 304/2/4 310/2/4
f 310/2/4 311/2/4 313/2/4
f 309/2/4 310/2/4 313/2/4
f 313/2/4 311/2/4 314/2/4
f 312/2/4 313/2/4 315/2/4
f 315/2/4 313/2/4 316/2/4
f 317/2/4 318/2/4 319/2/4
f 317/2/4 319/2/4 321/2/4
f 319/2/4 320/2/4 321/2/4
f 321/2/4 320/2/4 322/2/4
f 322/2/4 320/2/4 323/2/4
f 323/2/4 320/2/4 324/2/4
f 325/2/4 326/2/4 327/2/4
f 327/2/4 326/2/4 328/2/4
f 328/2/4 326/2/4 329/2/4
f 329/2/4 330/2/4 331/2/4
f 328/2/4 329/2/4 331/2/4
f 331/2/4 330/2/4 332/2/4
f 328/2/4 331/2/4 336/2/4
f 336/2/4 331/2/4 337/2/4
f 337/2/4 331/2/4 338/2/4
f 333/2/4 334/2/4 339/2/4
f 339/2/4 334/2/4 340/2/4
f 335/2/4 336/2/4 341/2/4
f 336/2/4 337/2/4 341/2/4
f 341/2/4 337/2/4 342/2/4
f 343/2/4 344/2/4 345/2/4
f 345/2/4 344/2/4 346/2/4
f 347/2/4 348/2/4 349/2/4
f 349/2/4 348/2/4 352/2/4
f 352/2/4 348/2/4 353/2/4
f 350/2/4 351/2/4 354/2/4
f 354/2/4 351/2/4 355/2/4
f 356/1/4 357/1/4 358/1/4
f 358/1/4 357/1/4 359/1/4
f 359/1/4 360/1/4 363/1/4
f 361/2/4 362/2/4 364/2/4
f 364/2/4 362/2/4 365/2/4
f 359/1/4 363/1/4 367/1/4
f 365/2/4 366/2/4 367/2/4
f 364/2/4 365/2/4 367/2/4
f 363/2/4 364/2/4 367/2/4
f 367/2/4 366/2/4 368/2/4
f 359/1/4 367/1/4 369/1/4
f 359/1/4 369/1/4 372/1/4
f 369/2/4 370/2/4 373/2/4
f 372/1/4 369/1/4 373/1/4
f 373/2/4 370/2/4 374/2/4
f 371/1/4 372/1/4 375/1/4
f 375/1/4 372/1/4 376/1/4
f 377/1/4 378/1/4 379/1/4
f 379/1/4 378/1/4 380/1/4
f 384/1/5 382/1/5 381/1/5
f 385/1/5 382/1/5 384/1/5
f 387/1/5 384/1/5 383/1/5
f 387/1/5 386/1/5 385/1/5
f 387/1/5 385/1/5 384/1/5
f 388/1/5 386/1/5 387/1/5
f 389/1/5 386/1/5 388/1/5
f 390/1/5 386/1/5 389/1/5
f 391/1/5 389/1/5 388/1/5
f 392/1/5 389/1/5 391/1/5
f 395/2/5 394/2/5 393/2/5
f 396/2/5 394/2/5 395/2/5
f 399/2/5 398/2/5 397/2/5
f 400/2/5 398/2/5 399/2/5
f 404/2/5 402/2/5 401/2/5
f 405/2/5 402/2/5 404/2/5
f 407/2/5 404/2/5 403/2/5
f 407/2/5 406/2/5 405/2/5
f 407/2/5 405/2/5 404/2/5
f 408/2/5 406/2/5 407/2/5
f 409/2/5 407/2/5 403/2/5
f 410/2/5 407/2/5 409/2/5
f 411/2/5 406/2/5 408/2/5
f 412/2/5 411/2/5 410/2/5
f 413/2/5 411/2/5 412/2/5
f 414/2/5 406/2/5 411/2/5
f 414/2/5 411/2/5 413/2/5
f 415/2/5 406/2/5 414/2/5
f 418/2/5 417/2/5 416/2/5
f 420/2/5 418/2/5 416/2/5
f 420/2/5 419/2/5 418/2/5
f 421/2/5 419/2/5 420/2/5
f 422/2/5 419/2/5 421/2/5
f 423/2/5 419/2/5 422/2/5
f 424/1/6 425/1/6 427/1/6
f 427/1/6 425/1/6 428/1/6
f 426/1/6 427/1/6 430/1/6
f 430/1/6 427/1/6 431/1/6
f 428/1/6 429/1/6 432/1/6
f 432/1/6 429/1/6 433/1/6
f 431/1/6 432/1/6 434/1/6
f 434/1/6 432/1/6 435/1/6
f 436/1/6 437/1/6 442/1/6
f 442/1/6 437/1/6 443/1/6
f 438/1/6 439/1/6 444/1/6
f 444/1/6 439/1/6 445/1/6
f 440/1/6 441/1/6 446/1/6
f 446/1/6 441/1/6 447/1/6
f 448/1/6 449/1/6 450/1/6
f 448/1/6 450/1/6 452/1/6
f 450/1/6 451/1/6 452/1/6
f 452/1/6 451/1/6 453/1/6
f 453/1/6 451/1/6 454/1/6
f 454/1/6 451/1/6 455/1/6
f 447/1/6 441/1/6 456/1/6
f 453/1/6 454/1/6 457/1/6
f 457/1/6 454/1/6 458/1/6
f 458/1/6 454/1/6 459/1/6
f 455/1/6 456/1/6 460/1/6
f 456/1/6 441/1/6 461/1/6
f 460/1/6 456/1/6 461/1/6
f 461/1/6 441/1/6 462/1/6
f 448/1/6 452/1/6 463/1/6
f 463/1/6 452/1/6 464/1/6
f 458/1/6 459/1/6 465/1/6
f 459/1/6 460/1/6 465/1/6
f 460/1/6 461/1/6 465/1/6
f 465/1/6 461/1/6 466/1/6
f 467/2/6 468/2/6 469/2/6
f 469/2/6 468/2/6 470/2/6
f 471/2/6 472/2/6 473/2/6
f 473/2/6 472/2/6 474/2/6
f 475/2/6 476/2/6 479/2/6
f 479/2/6 476/2/6 480/2/6
f 477/2/6 478/2/6 481/2/6
f 481/2/6 478/2/6 482/2/6
f 483/2/6 484/2/6 485/2/6
f 485/2/6 484/2/6 486/2/6
f 487/2/6 488/2/6 489/2/6
f 489/2/6 488/2/6 490/2/6
f 487/2/6 489/2/6 491/2/6
f 491/2/6 489/2/6 492/2/6
f 490/2/6 488/2/6 493/2/6
f 491/2/6 492/2/6 494/2/6
f 492/2/6 493/2/6 494/2/6
f 493/2/6 488/2/6 495/2/6
f 494/2/6 493/2/6 495/2/6
f 496/2/6 497/2/6 498/2/6
f 498/2/6 497/2/6 499/2/6
f 500/2/6 501/2/6 504/2/6
f 504/2/6 501/2/6 505/2/6
f 502/2/6 503/2/6 506/2/6
f 506/2/6 503/2/6 507/2/6
f 508/2/6 509/2/6 513/2/6
f 513/2/6 509/2/6 514/2/6
f 510/2/6 511/2/6 515/2/6
f 515/2/6 511/2/6 516/2/6
f 512/2/6 513/2/6 518/2/6
f 516/2/6 517/2/6 520/2/6
f 520/2/6 517/2/6 521/2/6
f 518/2/6 519/2/6 522/2/6
f 512/2/6 518/2/6 522/2/6
f 522/2/6 519/2/6 523/2/6
f 524/2/6 525/2/6 526/2/6
f 526/2/6 525/2/6 527/2/6
f 528/2/6 529/2/6 532/2/6
f 532/2/6 529/2/6 533/2/6
f 533/2/6 529/2/6 534/2/6
f 534/2/6 529/2/6 535/2/6
f 530/2/6 531/2/6 536/2/6
f 536/2/6 531/2/6 537/2/6
f 533/2/6 534/2/6 539/2/6
f 539/2/6 534/2/6 540/2/6
f 537/2/6 538/2/6 541/2/6
f 541/2/6 538/2/6 542/2/6
f 543/2/6 544/2/6 545/2/6
f 543/2/6 545/2/6 547/2/6
f 545/2/6 546/2/6 547/2/6
f 547/2/6 546/2/6 548/2/6
f 549/2/6 550/2/6 552/2/6
f 552/2/6 550/2/6 553/2/6
f 551/2/6 552/2/6 555/2/6
f 555/2/6 552/2/6 556/2/6
f 553/2/6 554/2/6 557/2/6
f 557/2/6 554/2/6 558/2/6
f 559/2/6 560/2/6 561/2/6
f 561/2/6 560/2/6 562/2/6
f 562/2/6 560/2/6 563/2/6
f 564/2/6 565/2/6 566/2/6
f 566/2/6 565/2/6 567/2/6
